<svg width="683" height="596" viewBox="0 0 683 596" fill="none" xmlns="http://www.w3.org/2000/svg">
<path d="M679.578 305.797C680.349 305.287 681.125 305.026 681.635 304.256C682.151 303.74 683.182 302.969 683.182 302.198C683.182 301.683 682.151 300.907 681.635 300.396L679.322 298.079C679.833 297.563 680.864 297.308 680.864 296.532C681.38 294.474 682.151 292.417 682.151 290.355C682.151 289.323 680.349 288.552 679.322 287.266C680.349 287.266 680.864 287.266 681.635 287.011V286.235H679.322C677.776 285.209 676.229 283.146 675.718 283.407C672.885 284.948 672.885 282.891 672.369 281.344C671.338 281.605 670.312 281.86 669.541 281.605C667.739 281.344 665.937 280.573 664.135 280.573C661.817 280.318 659.244 280.318 656.666 280.058C652.807 279.542 648.947 279.032 645.083 278.516C644.828 278.516 644.312 279.032 644.057 279.032C641.994 278.771 639.937 278.516 638.135 278C637.619 277.74 637.364 276.454 637.364 275.943C640.192 273.881 643.026 271.823 644.828 270.537C646.885 270.276 648.171 270.021 649.974 270.021C648.432 267.959 647.401 266.933 646.114 265.386C645.343 265.646 644.572 265.901 643.281 266.417C643.281 265.131 643.281 263.844 643.541 263.844C644.572 263.584 646.114 263.329 646.885 263.844C647.916 264.615 648.432 265.901 649.463 267.448C649.974 267.448 651.005 267.704 652.036 267.704C651.776 264.36 651.776 264.36 648.947 259.464C652.552 259.464 653.578 258.438 652.807 254.834C655.125 254.573 657.697 254.318 660.015 254.318C659.755 253.802 659.244 252.776 658.984 252C660.015 252.261 660.786 252.516 661.302 252.776C661.557 251.485 661.557 250.198 661.817 249.172C662.072 247.881 662.333 246.339 662.588 245.052C662.588 244.537 662.333 243.766 662.588 242.99C663.359 240.933 663.619 237.844 662.849 236.297C663.359 235.787 663.619 235.011 663.619 234.5C663.619 232.438 663.619 230.12 663.359 228.063C663.104 226.006 662.849 224.204 662.588 222.141C662.333 221.625 662.333 221.115 662.588 220.339C663.359 218.282 663.875 216.224 662.333 214.162C661.817 213.646 662.072 212.36 662.333 211.589C663.104 208.756 661.557 206.443 658.729 205.927H657.697C657.958 205.151 658.213 204.896 658.468 204.381C657.697 204.125 656.927 204.125 656.411 203.61C655.895 203.349 655.64 202.579 655.125 202.323C653.062 201.292 650.75 200.261 648.432 199.235C647.661 198.974 646.63 198.974 645.859 198.974C645.343 199.235 645.083 198.204 644.572 198.204C640.968 197.433 637.364 196.917 633.76 195.886C630.927 194.86 627.583 196.917 624.75 194.86C624.494 194.599 623.979 195.115 623.718 195.115C621.406 194.599 619.343 195.886 617.026 195.115C614.713 194.344 612.135 194.084 611.109 191.766C610.078 189.454 609.307 187.136 609.307 184.818C609.562 181.985 610.849 178.896 605.958 179.412C606.218 178.896 606.218 178.381 606.474 178.125C591.546 176.584 576.614 175.292 561.942 173.75C561.427 171.948 560.911 169.891 560.395 167.058C563.229 170.146 565.802 171.948 569.406 171.693C569.666 169.631 569.406 168.089 567.349 166.797C567.088 166.542 566.833 165.511 567.088 165C568.119 162.422 569.151 160.11 569.921 157.792C570.953 158.563 571.724 159.079 572.755 159.594L573.27 159.079L570.182 154.443C572.239 154.959 574.041 155.219 576.359 155.73C575.583 154.188 574.812 153.157 574.812 153.157C576.099 152.125 577.385 151.099 579.187 149.813C579.187 149.552 579.447 148.011 580.218 147.75C581.765 146.98 582.276 148.266 582.791 149.552C583.052 150.323 584.593 150.584 585.625 150.839C586.656 151.099 587.942 151.099 589.229 150.839C591.286 150.839 593.349 150.584 596.177 150.323C594.119 149.813 592.572 149.297 591.286 149.037C591.286 148.782 591.286 148.526 591.031 148.266C593.088 147.75 595.145 147.235 596.947 146.724C599.01 147.235 600.812 148.011 602.354 148.526C602.869 153.157 605.958 149.297 607.76 149.813C607.244 148.782 606.474 147.75 605.703 146.464C609.046 146.98 612.395 146.98 614.713 149.552C614.968 149.813 616 149.552 616.515 149.297C617.286 149.552 618.572 150.068 619.088 149.813C619.859 149.037 619.859 147.75 620.63 146.209C622.432 149.297 624.234 147.495 626.036 146.209C625.781 146.98 625.781 147.495 625.781 147.495C627.322 148.266 628.609 148.782 630.411 149.552C631.697 149.037 633.244 147.235 635.562 149.037C635.817 149.297 636.849 148.782 637.619 148.782C638.39 148.526 638.906 148.526 639.166 148.266C639.682 146.464 639.937 144.922 640.708 143.375C641.479 141.834 641.224 140.287 639.682 139.771C639.166 139.516 638.651 139.516 638.39 139.256C640.708 136.943 642.77 135.396 646.114 136.427C646.885 136.683 647.916 135.651 649.203 134.881C648.432 134.11 647.916 133.849 647.401 133.594C649.463 129.219 652.807 132.047 655.895 132.047C654.864 131.276 654.354 130.506 653.838 130.25C655.38 129.474 656.927 128.959 658.213 128.188C658.468 127.157 658.213 126.131 658.468 125.615C659.755 123.558 658.984 122.011 656.927 120.98C656.156 120.464 655.38 119.438 654.864 118.667C655.64 118.667 656.666 118.407 657.697 118.407V115.318C658.213 115.318 658.729 115.318 659.244 115.573C659.5 112.485 659.755 109.396 660.27 106.052C657.442 104.506 658.984 102.704 660.531 100.391C660.531 100.391 660.015 100.131 659.5 100.131C659.755 99.0993 660.27 98.0733 660.531 97.0421C661.046 94.9848 660.27 94.7243 657.958 95.7556C657.697 95.24 657.442 94.4691 656.927 93.9535C656.666 94.2087 656.666 94.4691 656.411 94.7243C655.38 94.4691 654.609 93.9535 653.578 93.6983C648.432 91.6358 643.026 92.1514 637.88 91.8962C637.104 91.8962 636.078 92.6671 635.302 92.6671C632.213 92.4066 629.385 91.3806 626.552 91.1202C622.692 90.865 618.828 90.865 614.968 90.865C612.135 90.865 611.625 89.3181 611.88 87.2608C612.911 86.49 613.937 84.9431 613.937 84.6879C610.593 82.115 613.682 80.3129 614.453 78.2504C614.197 73.1046 613.937 67.9535 613.682 62.5473C614.197 62.2921 615.224 62.0368 616 61.7764C615.739 61.0056 615.224 60.2348 615.224 59.4587C616 56.3702 616.255 53.2816 612.911 50.9639C614.453 49.9379 615.739 49.1671 617.286 48.1358C617.026 47.8754 616.77 47.365 616.77 47.1046C616.77 46.8493 616.515 46.8493 616.255 46.8493C613.682 46.8493 612.651 46.3337 612.395 43.7608C612.395 43.2452 612.395 42.4743 612.911 41.9587C613.937 41.1827 614.968 40.4118 616.255 39.8962C616.77 39.641 617.802 39.8962 618.312 40.1566C621.145 41.6983 621.406 41.6983 621.916 38.3546C622.432 38.6098 622.947 38.8702 623.718 39.1254C623.463 38.0941 623.463 37.3233 622.947 36.5525C622.947 36.2921 622.432 36.0368 621.916 35.7816C622.432 35.5212 622.947 35.0056 623.463 35.266C626.036 36.0368 627.583 34.2348 629.385 33.2035C627.838 31.1462 626.296 29.3441 625.005 27.2868C627.067 26.2556 628.609 25.74 630.156 24.9691C626.807 19.3077 626.807 19.3077 629.125 16.99C629.125 16.7296 628.869 16.4743 628.869 16.2139C628.099 16.4743 627.067 16.7296 626.296 17.2452L626.036 16.99C627.067 15.9587 628.099 15.1879 629.125 14.1566C629.125 13.3858 629.64 11.5837 629.125 11.0681C627.067 9.26601 629.385 7.46393 628.869 5.66184C628.609 5.14622 628.869 3.85976 628.609 3.85976C627.067 3.08893 625.265 1.80247 623.463 1.80247C619.343 1.54205 615.224 2.05768 611.109 2.05768H597.979C594.89 2.05768 592.317 1.28684 589.229 0.516011C585.625 -0.51524 581.765 0.255594 577.901 0.516011C569.666 0.771219 561.427 0.771219 553.192 1.03163C549.328 1.03163 545.213 1.54205 541.349 1.80247C536.458 2.05768 531.567 1.80247 526.677 2.05768C521.531 2.31809 516.38 2.83372 511.234 3.08893C505.057 3.34414 498.88 3.34414 492.698 3.60455L473.395 4.37539C467.474 4.63059 461.812 4.63059 455.89 4.63059C451.515 4.63059 446.88 4.89101 442.505 5.14622L429.38 5.92226C426.286 6.17747 423.198 6.17747 419.854 6.43268C414.708 6.69309 409.557 6.69309 404.411 6.9483C398.489 7.20872 392.828 7.72434 387.161 7.97955C381.244 8.49518 375.578 9.0108 369.661 9.52643C367.343 9.78164 365.026 9.78163 362.453 10.0368H354.989C346.494 10.5525 338.255 11.3233 329.76 11.8389C324.614 12.0993 319.208 12.3546 314.057 12.8702C310.968 13.1254 307.625 13.641 304.536 13.9014L283.687 15.4431C279.307 15.7035 275.192 16.7296 271.072 16.99C264.635 17.5056 257.942 17.7608 251.51 18.2764C249.963 18.2764 248.161 18.5316 246.619 18.5316C240.953 19.0473 235.552 19.5629 229.885 20.0785C226.796 20.3337 223.453 20.8493 220.364 21.1098C216.5 21.365 212.64 21.6202 209.036 21.8806C201.828 22.6514 194.364 23.4223 187.156 24.1983C185.869 24.4535 184.838 25.2243 183.552 25.2243C177.635 25.74 171.713 25.74 166.052 26.5108C162.963 27.0264 159.614 25.74 156.781 28.3129C155.755 29.0889 152.921 27.7973 151.119 28.0577C143.911 28.8285 136.708 29.8598 129.755 30.6306C124.093 31.4014 118.687 31.9171 113.026 32.6931C110.963 32.9483 108.906 33.7191 107.104 33.9796C101.953 34.49 96.8069 35.0056 91.9162 35.5212C91.9162 36.5525 91.9162 37.0681 91.661 37.5837C91.1454 37.0681 90.6298 36.2921 90.1141 35.266C89.0829 38.0941 87.0256 36.2921 85.4787 36.5525C82.6506 37.0681 79.5621 37.8389 76.7287 38.0941C71.5829 38.8702 66.4319 39.3806 61.286 39.8962C56.911 40.4118 52.5308 41.4431 48.1558 42.2139C40.6923 43.5004 32.9683 44.2764 25.5048 45.5629C20.3589 46.3337 15.2079 47.6202 9.80164 48.391C4.39539 49.4223 -1.26607 50.1931 -6.67232 51.2243C-10.5317 51.9952 -14.3911 53.0264 -18.2557 53.7973C-25.9744 55.0837 -33.9536 56.3702 -41.6775 57.6566C-44.5109 58.1723 -47.0838 59.2035 -49.9171 59.7191C-54.8077 60.7504 -59.6984 61.2608 -64.589 62.2921C-68.1932 63.0629 -71.5369 64.3493 -74.8859 64.865C-82.089 66.4118 -89.2973 67.4431 -96.5057 68.7296C-99.5942 69.24 -102.683 70.2712 -105.771 71.0421C-110.662 72.3337 -115.813 73.3598 -120.704 74.6462C-121.99 74.9066 -123.276 75.6775 -124.818 75.9327C-126.365 76.1931 -127.912 76.1931 -129.454 76.4483C-132.542 77.2243 -135.631 77.9952 -138.464 78.766C-144.641 80.3129 -147.73 80.8233 -150.563 82.3702C-153.136 83.6566 -156.74 83.4014 -157.771 87.516C-158.282 88.8077 -159.568 89.5785 -157.256 90.0941C-156.995 90.0941 -156.48 90.865 -156.74 91.1202C-157.256 92.6671 -157.771 94.2087 -158.282 96.2712C-158.282 96.2712 -157.771 96.5264 -157.256 97.0421C-158.797 98.5889 -158.797 104.25 -157.771 106.052C-157.256 107.084 -156.995 108.37 -156.74 109.657C-159.829 110.427 -156.224 112.23 -157.256 113.261C-156.74 113.261 -156.224 113.261 -155.454 113.516C-155.969 114.287 -156.48 114.802 -156.74 115.063C-156.224 115.573 -155.454 115.834 -154.938 116.349C-157.771 120.209 -157.771 122.011 -154.422 125.36C-154.167 125.615 -153.651 126.131 -153.651 126.386C-154.422 129.219 -154.167 131.792 -152.365 134.11C-152.365 134.11 -152.62 134.881 -153.136 135.396C-152.365 135.141 -151.849 134.881 -151.334 134.881L-152.105 139.516H-149.276C-148.5 140.542 -147.73 141.318 -147.73 141.573C-146.959 140.802 -146.443 140.542 -146.188 140.287C-144.896 142.344 -143.87 143.891 -143.094 145.433C-143.355 147.235 -143.87 148.782 -144.125 149.813C-145.412 149.813 -146.698 149.552 -147.474 150.068C-148.245 150.584 -148.245 151.87 -148.761 152.641C-148.761 152.901 -146.959 156.245 -147.214 156.506C-147.474 158.308 -147.985 160.11 -148.245 162.167C-147.214 162.938 -145.928 163.969 -144.896 164.74C-146.698 165.771 -147.985 166.797 -149.276 167.573C-148.761 167.829 -148.5 168.089 -147.985 168.344C-147.73 169.375 -147.214 170.401 -147.214 171.433C-147.214 172.464 -147.985 174.266 -147.474 174.521C-145.157 175.808 -146.443 179.672 -143.355 180.183C-143.094 180.183 -143.094 180.698 -142.584 181.214C-143.355 181.214 -143.87 181.214 -144.896 181.474C-142.068 183.532 -142.839 185.334 -143.87 186.875C-144.896 187.136 -145.672 187.391 -146.443 187.651C-146.188 188.167 -146.188 188.422 -145.928 188.938C-145.672 189.193 -144.386 192.542 -144.386 193.058C-144.896 194.344 -145.157 195.631 -145.412 196.917C-143.87 196.917 -142.584 197.172 -142.068 197.172C-142.584 197.433 -143.355 197.948 -143.87 198.204C-143.61 198.719 -143.355 199.235 -142.839 199.49C-140.782 199.235 -138.719 198.974 -136.401 198.719C-136.662 200.006 -136.917 201.037 -137.433 202.063C-136.146 202.063 -134.605 202.323 -133.313 202.323V203.61C-135.115 203.865 -136.917 204.381 -138.464 204.641C-132.026 207.73 -126.11 204.896 -119.157 203.865C-117.87 205.151 -116.584 204.125 -115.553 202.063C-114.266 203.865 -113.235 203.349 -110.662 199.75C-110.407 199.75 -110.146 200.006 -109.891 200.006C-110.146 201.037 -110.662 201.808 -110.922 202.839C-109.375 202.323 -108.089 202.063 -106.547 201.547L-101.141 200.776C-98.3077 200.261 -95.4744 200.006 -92.9015 199.49C-91.8702 199.235 -90.8442 198.459 -89.813 198.204C-88.7817 197.948 -87.24 197.172 -86.7244 197.688C-84.6671 199.49 -82.865 201.547 -80.8025 203.349C-80.5473 202.839 -80.2869 202.063 -80.2869 202.063C-78.4848 202.579 -77.1984 202.839 -75.3963 203.349C-75.1411 204.125 -74.6255 205.151 -74.6255 205.667C-71.7973 205.927 -69.4796 206.183 -67.4171 206.443C-67.4171 206.698 -67.1619 206.954 -67.1619 207.214L-71.7973 208.756C-72.0525 207.985 -72.3077 207.73 -72.8234 206.443C-72.5682 209.271 -72.3077 211.073 -72.3077 213.391C-69.9952 211.589 -66.9015 213.646 -65.3598 210.558C-65.3598 210.302 -64.3286 210.302 -64.0734 210.558C-62.0109 210.818 -59.9536 211.073 -57.8963 211.589C-58.1515 211.073 -58.1515 210.558 -58.4119 210.042C-57.1202 210.302 -56.0942 210.558 -55.3182 210.818C-55.3182 211.073 -55.063 211.334 -55.063 211.589C-56.865 212.62 -58.6671 213.907 -60.4692 214.933C-63.3025 216.735 -65.8755 219.052 -68.7036 219.823C-73.5942 220.855 -78.4848 222.657 -83.6359 222.917H-84.9223C-90.3286 223.943 -95.4744 224.974 -100.881 226.006C-101.651 226.261 -102.167 226.516 -102.943 226.516C-106.287 227.032 -109.636 227.292 -112.724 227.808C-116.068 228.579 -119.672 229.094 -123.021 230.381C-125.594 231.151 -128.938 230.896 -129.969 233.469C-131 233.469 -132.026 233.209 -132.542 233.469C-136.401 235.011 -140.266 236.558 -143.87 238.36C-145.157 239.391 -146.188 239.901 -146.698 240.933C-146.959 241.704 -146.188 242.99 -145.928 243.506C-146.443 243.766 -147.474 244.021 -147.474 244.282C-147.474 245.823 -147.474 247.37 -146.959 248.657C-146.188 250.459 -143.87 252 -146.443 254.318C-146.959 254.573 -146.443 255.865 -146.443 256.891C-145.672 256.636 -145.157 256.636 -144.386 256.636C-146.959 261.011 -146.959 262.558 -144.386 263.329C-144.386 264.87 -144.896 266.417 -144.386 267.448C-142.839 270.021 -140.782 272.594 -138.98 274.912C-139.235 275.167 -139.75 275.427 -140.006 275.427C-138.98 276.714 -137.948 278 -137.178 278.771C-138.204 280.318 -138.98 281.605 -140.006 282.891C-138.719 283.407 -137.948 283.662 -136.917 283.922C-138.719 284.433 -140.266 284.948 -142.584 285.98C-138.204 287.011 -137.948 290.099 -137.433 293.188C-137.433 293.443 -136.146 293.704 -135.375 293.959C-135.375 294.474 -135.891 295.245 -135.631 295.761C-134.605 297.047 -132.803 297.818 -132.542 299.365C-131 303.74 -128.167 302.969 -125.079 301.938L-123.532 304.256C-123.021 304 -122.506 303.485 -122.245 303.224C-121.99 304.771 -119.417 306.573 -118.641 305.542C-116.839 302.969 -114.782 304.511 -112.724 304.771C-111.693 305.026 -110.146 305.287 -109.636 304.771C-108.344 303.485 -104.485 304.771 -105.516 301.167C-105.771 300.396 -106.803 299.62 -107.834 298.849H-100.365C-100.11 299.62 -100.11 300.651 -99.8546 301.422C-101.141 301.683 -102.428 301.938 -103.714 302.454C-103.714 302.709 -103.454 302.969 -103.454 303.485C-102.943 303.485 -102.167 303.224 -101.651 303.224C-99.5942 304 -96.7609 301.938 -94.964 304.511C-91.615 309.146 -85.6932 310.433 -80.2869 307.86C-79.7765 307.599 -78.7452 308.375 -77.9744 308.631C-77.714 308.631 -77.714 308.631 -77.4588 308.891C-77.1984 308.375 -77.1984 307.86 -77.1984 308.115C-75.3963 308.115 -73.5942 308.631 -71.7973 308.375C-68.964 308.115 -66.1307 307.089 -63.3025 306.829C-58.9223 306.313 -54.5473 306.313 -50.1723 305.287C-48.3702 304.771 -47.0838 305.026 -45.7973 305.542C-53.7765 308.891 -61.7557 312.235 -69.7348 315.323C-69.7348 315.584 -69.4796 315.839 -69.4796 316.094C-68.964 316.094 -68.4484 316.355 -67.4171 316.61C-69.2192 317.386 -69.9952 317.641 -71.2817 318.157C-68.964 319.698 -72.0525 321.5 -70.7661 323.563C-69.7348 325.62 -70.5057 328.709 -65.8755 327.938C-70.5057 330.256 -70.7661 333.599 -67.6775 337.204C-67.1619 337.719 -66.9015 338.75 -67.1619 339.261C-67.6775 341.063 -68.4484 342.61 -68.964 343.896C-70.7661 343.896 -71.7973 343.641 -72.8234 343.641C-75.3963 343.896 -77.9744 344.412 -80.5473 344.927C-88.7817 346.469 -97.2765 348.016 -105.516 349.558C-112.464 350.844 -119.157 353.422 -126.11 353.933C-131 354.193 -135.375 356.766 -140.006 357.026C-143.094 357.282 -146.188 358.568 -149.016 359.855C-150.563 360.37 -151.849 361.657 -153.136 362.427C-153.391 362.427 -154.167 362.172 -154.422 362.427C-156.48 363.459 -158.282 364.49 -160.344 365.261C-161.886 366.032 -163.172 366.808 -164.719 367.578C-164.719 367.834 -164.464 368.094 -164.464 368.349C-164.974 368.349 -165.75 368.094 -166.521 367.834C-166.261 369.381 -166.006 370.407 -165.75 371.698C-166.006 371.698 -166.006 371.698 -166.261 371.953C-166.521 371.438 -166.776 370.922 -167.037 370.667C-169.355 373.24 -170.896 375.558 -167.292 377.099C-167.553 378.391 -167.553 379.417 -167.553 380.193L-166.776 385.594C-166.521 387.912 -167.037 390.23 -164.204 391C-164.974 392.287 -164.974 398.209 -163.948 398.464C-162.146 399.24 -161.631 401.558 -160.084 402.584C-159.829 402.844 -159.568 403.36 -159.568 403.36C-161.631 405.672 -158.542 404.646 -158.026 405.672C-158.542 406.959 -159.568 408.25 -159.829 409.792C-160.084 411.339 -159.829 412.625 -157.511 411.849C-157.771 414.167 -158.026 416.23 -158.282 418.542C-158.026 418.542 -157.771 418.287 -157.771 418.287C-156.995 420.089 -156.48 421.636 -155.709 423.177C-154.422 423.177 -153.136 423.433 -151.589 423.693V424.464C-152.365 424.724 -153.136 424.98 -153.907 425.235C-153.651 425.495 -153.136 425.495 -153.136 425.495C-152.881 429.355 -149.532 428.839 -147.214 429.87C-146.188 430.386 -144.896 430.641 -144.125 430.386C-142.584 429.615 -141.553 429.87 -141.553 431.417C-141.553 432.188 -142.068 433.219 -142.323 433.73C-140.521 433.73 -137.693 434.506 -136.146 433.474C-132.542 431.157 -129.198 433.219 -125.849 432.443C-124.047 431.927 -122.506 431.927 -119.928 431.417C-118.641 432.443 -117.355 432.188 -117.099 430.901C-115.037 430.901 -113.235 430.901 -111.438 430.641C-108.605 430.125 -106.032 429.355 -103.198 429.099C-101.396 428.839 -99.339 429.355 -97.2765 429.099C-96.2505 428.839 -95.4744 427.297 -94.4484 426.526C-93.4171 429.099 -91.3598 429.355 -88.0109 427.552C-89.2973 426.526 -90.8442 425.75 -92.1307 424.98C-90.8442 424.464 -89.813 423.693 -88.7817 423.433C-87.7557 423.433 -86.9796 423.693 -86.2088 423.693C-85.438 423.693 -84.6671 423.693 -83.8911 423.433C-83.1202 423.177 -82.6046 422.922 -82.089 422.407C-82.089 423.177 -81.8338 424.209 -81.8338 424.98C-81.8338 425.75 -82.3494 426.526 -82.6046 427.297C-81.8338 427.297 -81.063 427.297 -80.0317 427.037C-79.0005 428.584 -81.8338 431.927 -77.9744 432.188C-78.2296 433.219 -78.4848 433.99 -78.7452 435.016C-77.1984 435.016 -75.6567 435.276 -73.339 435.532C-74.3702 436.818 -75.1411 437.849 -76.1723 438.881C-75.3963 438.62 -74.6255 438.62 -73.0838 438.365C-76.4275 441.453 -72.8234 441.709 -71.5369 443.511C-70.7661 441.453 -70.2505 440.167 -69.9952 439.136C-68.7036 440.422 -67.1619 441.969 -65.615 443.771C-65.3598 443.771 -64.8442 443.256 -64.589 443.511C-61.7557 444.802 -60.4692 443.511 -59.438 440.938C-59.1827 440.422 -57.8963 440.167 -57.6359 439.907C-58.1515 441.453 -58.9223 443 -59.6984 444.802C-62.7869 445.313 -66.3911 446.089 -69.9952 446.86C-73.339 447.631 -76.688 448.917 -80.2869 449.433C-85.1775 450.203 -90.0682 450.719 -95.2192 451.49C-101.141 452.521 -107.058 453.552 -112.98 454.839C-117.87 455.87 -122.506 457.412 -127.396 458.443C-130.74 459.214 -134.089 459.474 -137.178 460.761C-140.266 462.047 -144.641 461.787 -145.672 466.167C-147.474 465.136 -148.761 465.651 -149.016 467.453C-149.016 467.969 -149.276 468.48 -149.787 468.48C-152.62 469.256 -151.849 470.797 -150.563 472.344C-149.016 474.146 -149.016 475.948 -149.276 478.006C-149.787 480.839 -150.303 483.927 -150.818 486.756C-150.818 487.532 -150.047 488.302 -149.532 489.073L-148.761 490.62V494.995C-147.73 494.995 -146.443 494.735 -145.157 494.735C-145.157 494.735 -145.157 494.995 -144.896 494.995C-145.672 495.25 -146.188 495.511 -146.959 496.026C-145.412 497.823 -148.245 502.459 -142.068 501.427C-143.87 502.974 -144.896 504.006 -145.672 504.516C-145.157 505.808 -144.641 506.578 -144.386 507.349C-145.412 508.12 -146.188 508.896 -146.959 509.407C-145.928 510.438 -144.896 511.209 -144.386 511.985C-143.355 510.953 -142.323 509.922 -141.297 509.922C-140.266 509.922 -138.98 511.724 -137.693 512.756C-137.693 513.011 -138.464 513.271 -138.719 513.271C-140.521 511.209 -142.323 510.953 -144.125 513.271C-144.125 513.271 -144.386 513.271 -144.386 513.011C-144.386 512.756 -144.386 512.756 -144.641 512.5C-145.672 513.526 -145.412 514.302 -144.125 515.073C-142.323 516.099 -142.584 516.875 -143.61 518.162C-143.094 518.417 -142.323 518.933 -142.323 519.193C-142.323 520.48 -139.75 521.25 -141.808 522.792C-140.782 524.084 -140.266 525.37 -137.948 525.886C-135.891 526.396 -135.375 525.37 -134.089 525.11C-132.803 524.855 -131.256 525.625 -129.969 525.886C-129.454 525.886 -128.938 525.11 -128.938 524.855C-127.136 525.11 -125.334 525.625 -123.792 525.37C-121.474 525.11 -120.188 525.886 -119.928 527.943C-119.672 530.261 -118.386 530.516 -116.584 530.261C-115.037 530 -113.75 529.485 -112.209 529.23C-112.98 528.459 -114.011 527.683 -115.297 526.657C-114.011 526.396 -112.724 525.886 -111.693 525.886C-109.636 525.625 -107.834 525.37 -105.771 525.37C-105 525.37 -104.23 525.886 -103.454 526.657C-106.803 526.657 -109.891 526.657 -112.209 529.23C-111.438 529.485 -110.407 529.745 -109.636 529.745C-105.256 529.485 -100.625 529.23 -96.2505 528.974C-91.8702 528.714 -87.7557 528.198 -83.1202 527.943C-81.8338 533.349 -80.5473 538.495 -79.5161 543.646C-80.0317 543.901 -80.5473 544.157 -81.063 544.157C-80.2869 545.188 -79.2609 546.219 -79.0005 547.25C-78.7452 548.792 -79.0005 550.339 -79.0005 551.365C-77.1984 551.881 -76.1723 552.141 -74.8859 552.396C-75.1411 552.396 -75.3963 552.651 -75.9119 552.651C-75.6567 554.453 -75.1411 556.516 -74.8859 559.089H-70.7661C-69.9952 559.089 -69.2192 559.605 -68.964 559.86C-67.9327 562.948 -65.615 563.98 -62.5265 563.209C-61.24 562.948 -59.6984 562.948 -58.4119 562.948H-55.3182C-54.2921 562.948 -53.2609 562.693 -52.2296 562.433C-51.9744 561.662 -51.9744 560.891 -51.7192 559.86C-50.9432 559.86 -50.4275 559.605 -49.6567 559.605C-44.7661 559.089 -39.6202 558.318 -34.4692 557.802C-34.4692 557.802 -34.214 558.318 -33.9536 559.089C-34.7296 559.344 -35.2452 559.605 -35.7557 559.86C-33.6984 561.922 -30.865 562.177 -29.063 560.631C-30.0942 559.86 -30.865 559.344 -32.1515 558.573L-31.3807 557.802H-29.3234V557.542C-28.2921 557.802 -27.5213 558.318 -26.49 557.542H-25.464L-16.4536 558.058C-15.4223 558.058 -14.9067 557.802 -14.3911 557.287C-13.1046 559.344 -12.0786 561.146 -10.7869 563.464C-11.0473 563.464 -11.563 563.724 -12.0786 563.724C-8.72961 569.125 -6.67232 574.792 -9.76086 580.969C-9.50044 583.026 -8.98483 585.089 -8.72961 587.662H-6.15671C-6.67233 588.948 -7.18794 589.719 -7.44315 590.49C-7.44315 591.782 -4.60982 592.292 -6.67232 594.094L-6.15671 595.125C-3.58379 598.474 -0.750443 601.563 2.08289 605.422C0.0203857 606.453 -1.78169 607.48 -4.09419 608.511C-1.78169 608.766 -1.52129 610.058 -2.29211 611.86C-2.55254 612.37 -2.03691 613.657 -1.78171 613.917C1.05164 614.688 3.62456 617.521 6.97351 616.49C6.97351 617.006 6.7131 617.776 6.45789 618.037C4.39539 619.063 2.3381 619.839 0.280807 620.865L3.36935 622.412C3.88498 621.641 4.14018 620.865 4.65581 620.094C6.19748 620.865 7.48914 621.381 9.03081 622.151C8.25998 622.667 7.74435 622.927 7.22873 623.183C7.74435 623.443 8.25998 623.953 9.03081 624.214C9.80164 624.469 10.5777 624.214 11.0881 624.469C12.3798 623.183 13.4058 621.641 14.6923 620.865C16.2391 620.094 58.1975 615.719 59.7391 615.459C61.8016 615.203 64.1142 615.459 66.1766 615.719L60.7704 618.037L61.5412 619.578C64.1141 619.323 66.1766 619.323 68.2339 618.808C69.5204 618.547 71.5829 618.808 71.8381 616.75C73.6402 618.037 75.4423 618.292 77.76 617.261C79.0464 616.75 80.5881 616.75 81.8798 616.49C84.9683 616.235 88.0569 615.974 91.1454 615.459H94.2339C94.4891 614.948 94.4891 614.172 94.4891 614.172C97.3225 614.172 99.6402 614.433 102.213 614.433C105.046 614.433 106.333 612.631 105.302 609.797C106.072 609.797 107.104 610.058 107.619 610.058C107.875 611.084 107.619 612.37 108.135 612.631C108.906 613.146 110.192 613.146 111.224 612.886C112.51 612.631 114.052 611.344 114.567 611.86C117.14 613.917 118.942 612.115 120.229 611.084C121.26 611.344 121.776 612.115 122.291 611.86C123.578 611.599 125.119 611.344 126.411 611.084C129.239 610.313 132.328 609.797 135.161 609.797C139.02 609.542 142.625 608.511 146.489 608.256C148.291 607.995 150.088 608.511 151.89 608.766C152.406 608.766 153.182 608.766 153.182 608.511C153.182 605.938 157.296 607.224 156.781 604.391C157.296 604.651 157.812 604.651 158.072 605.167C158.843 605.938 159.359 606.709 160.13 607.48C160.13 606.453 160.13 605.677 159.869 604.651C162.447 605.938 165.02 607.224 166.822 608.256C168.625 606.969 170.166 606.453 171.197 605.167C172.229 603.62 171.968 603.365 173.77 604.651C173.515 604.907 173 605.167 172.484 605.677C175.572 604.907 178.406 603.365 181.494 603.62C184.583 603.62 187.671 604.136 190.505 602.334C190.76 603.105 190.76 603.875 191.276 604.136C192.046 604.651 193.333 604.907 193.593 604.651C195.135 602.334 197.713 602.589 199.255 603.875C201.312 605.422 202.604 604.136 204.406 603.875C202.859 603.105 201.572 602.334 200.286 601.818C200.541 601.563 200.541 601.302 200.802 601.047C201.572 601.302 202.604 601.563 203.375 602.073C203.63 601.047 204.145 600.276 204.406 599.5C206.979 600.787 209.296 601.818 212.125 600.016C212.64 599.761 214.697 598.214 214.187 600.787C212.895 601.563 211.609 602.334 210.322 602.849C210.322 603.105 210.583 603.105 210.583 603.365C212.125 603.105 213.927 602.849 215.729 602.589C215.213 601.818 214.958 601.302 214.697 600.787C216.5 601.047 218.562 601.302 220.364 601.047C224.224 600.787 227.057 596.927 231.687 598.474C233.234 598.985 236.838 598.474 237.093 595.125C237.093 595.896 237.093 596.927 237.354 597.443C239.927 596.672 242.244 595.896 244.817 595.125C244.817 595.381 244.302 596.157 244.557 596.672C244.557 597.443 245.072 598.214 245.588 598.73C245.849 598.985 247.135 598.73 247.135 598.474C247.645 596.157 249.447 596.412 251.25 596.412C252.796 596.412 254.599 596.157 256.401 595.896C257.171 594.61 257.687 592.552 260.26 595.125C261.291 596.157 263.864 595.896 264.125 593.839H274.932V594.355C276.218 594.094 277.505 593.584 278.536 593.323C279.307 594.61 280.083 595.896 281.109 597.443C282.911 592.552 284.974 591.521 288.578 593.323C289.088 593.584 289.088 594.87 289.349 595.896C289.604 595.641 291.151 595.125 291.151 594.87C290.89 592.808 293.724 594.355 293.468 592.808C295.781 593.839 296.296 592.292 296.812 591.266C295.781 590.49 295.27 589.98 294.494 589.203C294.755 588.948 294.755 588.693 295.01 588.433C297.072 589.719 299.13 591.006 300.416 591.782C302.474 591.521 304.276 591.521 306.078 591.266C307.88 591.006 309.682 590.235 311.744 589.719C312 590.235 312.255 590.49 312.515 591.006C313.286 589.98 313.802 588.948 314.833 587.146V591.266C317.145 589.719 318.947 588.433 320.494 587.146C321.526 588.948 322.296 590.75 323.067 592.292C323.328 592.292 323.328 592.037 323.583 592.037C323.328 591.006 323.067 589.98 322.552 588.693H335.682C336.968 586.375 339.802 586.115 342.114 588.433C345.463 591.782 345.979 591.782 348.036 586.891C349.067 587.401 350.099 587.917 351.385 588.693C352.927 585.344 355.5 585.344 358.588 586.375C360.135 586.891 361.937 585.86 363.739 585.344L365.026 586.631C366.573 586.115 367.859 585.86 369.145 585.344C369.401 586.115 369.401 586.631 369.661 587.917C370.687 586.891 371.463 585.86 372.75 584.573C373.776 585.86 374.552 587.146 375.578 588.433C377.38 588.433 380.213 589.98 380.729 585.86C380.729 585.344 382.27 584.573 383.046 584.313C384.588 584.058 386.135 583.797 387.677 583.797C387.161 582.771 386.645 582 385.875 580.709C387.937 581.224 389.479 581.224 390.765 581.74C393.599 583.026 395.916 583.026 398.744 580.969C398.229 580.709 397.718 580.198 397.203 579.938C397.458 579.167 397.974 578.396 398.229 577.62C399.26 574.532 401.833 576.594 403.635 575.818C403.635 575.818 404.666 576.849 404.921 577.62C405.698 579.167 406.213 580.969 406.984 582.771C411.614 579.938 415.734 580.969 419.854 581.485C418.823 580.969 418.052 580.453 417.281 579.938C417.281 579.683 417.536 579.422 417.536 579.167C418.567 579.422 419.854 579.938 420.885 580.198C420.885 579.938 420.885 579.683 420.625 579.422C421.395 579.167 422.687 578.651 422.942 578.907C424.489 582 427.062 579.683 429.38 580.453C428.864 578.396 428.604 576.849 428.349 575.818C429.38 574.792 430.406 574.016 431.953 572.99C431.953 574.276 431.692 575.563 431.692 576.849C431.692 578.136 431.953 579.422 432.468 580.198C432.724 580.709 434.27 580.198 435.296 579.938C437.099 579.167 438.901 578.136 440.703 580.198C440.963 580.453 441.989 580.198 442.505 579.683C443.791 578.396 444.823 576.594 446.364 579.422C446.625 579.683 448.166 579.683 448.942 579.422C450.744 578.651 452.286 577.881 454.088 576.849C453.833 577.62 453.573 578.136 453.573 578.651C455.635 579.683 457.437 580.198 458.979 577.881C459.494 577.11 461.296 577.11 462.583 576.849C461.812 576.078 460.781 575.563 459.75 574.792C464.13 572.214 464.64 572.474 464.64 576.078C465.156 575.047 465.416 574.276 466.187 572.73C470.046 572.99 473.911 573.506 478.026 573.761V575.047H476.484C473.395 575.308 470.307 575.308 467.218 575.563C468.244 576.078 469.531 576.849 470.562 577.365C471.078 576.078 471.333 576.334 472.619 576.849C474.421 577.365 476.484 577.365 478.541 577.62C479.573 577.62 480.604 577.881 481.89 578.136C482.145 577.365 482.661 576.334 483.177 575.047C486.005 579.683 488.067 579.422 491.411 574.792C491.411 575.563 491.671 576.078 491.671 576.594C492.698 576.594 493.474 576.594 494.5 576.334C494.244 576.849 493.989 577.365 493.729 577.62L494.244 578.136C495.015 577.365 495.791 576.594 497.078 575.563C498.104 576.078 499.39 576.594 500.421 577.11C501.453 576.334 502.739 575.563 504.026 574.792C505.828 578.396 508.145 578.907 510.203 576.334C513.291 576.594 515.864 576.849 517.666 576.849C517.927 575.047 518.182 573.761 518.442 572.474C519.468 572.73 520.244 572.99 521.27 573.245C521.786 573.506 522.302 574.016 522.817 574.276C522.046 574.532 521.27 574.532 520.5 574.792C522.817 576.849 524.619 576.334 526.421 574.792C525.645 576.849 527.963 576.594 528.224 576.594C531.567 575.308 534.656 574.532 538.26 576.594C538.776 574.016 539.291 571.959 539.546 569.901C540.833 570.157 541.864 570.157 543.151 570.417C544.182 570.417 545.213 570.672 546.239 570.672V571.443C545.213 571.703 544.437 571.959 543.411 572.214V572.99C547.015 573.761 550.359 574.532 553.963 575.047C554.734 575.308 555.765 574.532 557.052 573.761C557.567 574.016 558.854 574.532 560.395 574.792C564.26 575.308 568.38 575.818 571.468 572.474C571.724 575.308 574.296 573.506 575.583 574.532C575.583 574.532 576.875 573.506 577.385 572.99C577.385 572.99 577.13 572.73 577.13 572.474C577.645 572.73 577.901 573.506 578.416 573.245C580.734 573.245 582.791 572.99 584.338 572.99C585.625 573.761 586.395 574.532 586.911 574.276C590 574.016 592.833 573.245 595.661 573.245C598.494 574.792 597.979 571.959 597.463 570.417C598.494 569.386 599.526 568.615 599.781 568.355C601.328 568.355 602.354 568.615 603.13 568.355C604.156 567.584 604.932 566.297 606.218 564.75C607.76 564.495 610.333 563.98 613.166 563.464C613.166 563.464 613.166 562.948 613.421 562.433C614.453 560.891 617.026 560.375 615.484 557.542C615.224 557.032 615.224 555.485 615.739 554.969C617.541 552.651 617.541 552.396 614.453 551.365C614.713 549.563 612.911 547.25 615.484 546.99C616.255 545.448 616.515 544.672 617.026 543.901C617.286 543.386 618.057 542.87 618.057 542.36C618.057 541.328 617.541 540.042 617.802 539.266C618.572 536.438 618.828 533.865 614.197 532.834C616 532.063 616.77 531.547 618.057 531.032C616 530 614.197 529.23 611.88 528.198H614.197V527.427C612.911 527.427 611.88 527.172 610.593 527.172C610.593 527.427 610.593 527.683 610.333 527.943C610.078 527.427 609.822 526.912 609.562 526.141C616.255 524.594 661.046 519.703 656.927 518.933C658.984 517.131 658.213 514.042 661.817 513.787C662.849 513.787 664.645 511.985 664.906 510.698C665.421 508.896 664.906 506.578 665.421 504.776C665.937 502.203 666.963 499.625 667.739 497.568C666.963 496.282 666.192 494.995 665.677 494.224C666.708 493.448 667.224 492.933 667.994 492.677C667.739 492.422 667.739 492.162 667.479 491.907C666.708 492.162 665.937 492.422 665.161 492.677C669.541 489.073 670.567 482.381 666.963 479.292C666.708 479.808 666.192 480.323 665.937 480.839C664.906 479.037 662.072 478.521 663.359 475.688C663.359 475.688 663.104 475.172 662.849 475.172C661.557 474.657 661.817 473.886 661.302 472.86C660.531 470.542 660.786 468.224 660.786 466.167V456.896C660.786 454.839 661.817 453.808 663.875 454.323C663.875 454.323 664.135 454.068 664.39 454.068C663.619 453.552 663.104 453.292 662.588 452.782C662.588 452.521 662.849 452.266 662.849 452.006C664.645 452.521 666.447 453.292 667.739 453.808C669.281 451.75 670.567 450.203 671.599 449.177V444.542C671.083 444.542 670.312 444.802 669.541 444.802C669.026 443.511 668.765 442.224 668.25 440.422C669.541 441.198 670.052 441.709 670.567 441.969C671.083 441.709 671.854 441.453 672.63 440.938C672.369 440.683 672.114 440.422 672.114 440.167C671.338 440.167 670.567 439.907 670.312 439.907C670.828 438.365 671.854 436.818 671.338 436.047C670.052 432.703 671.338 430.125 672.63 427.297C672.885 426.526 672.63 425.75 672.63 424.98C672.885 421.636 673.14 418.542 673.401 413.912C672.369 413.396 670.828 412.11 669.026 411.078C667.479 410.308 665.937 410.052 664.39 409.537C663.619 409.276 662.588 409.537 661.817 409.276C655.38 408.506 648.687 407.474 642.255 406.703C636.849 405.933 631.442 405.157 626.296 404.386C625.005 404.131 623.718 403.615 622.177 403.615C618.828 403.36 615.224 403.36 611.88 403.36C610.078 403.36 608.531 403.36 606.729 403.099C603.64 402.844 600.552 402.328 597.463 402.068V401.297C605.187 400.782 613.166 400.011 621.145 401.558C620.89 400.782 620.63 400.011 620.375 399.495C622.177 399.24 623.463 397.693 625.265 399.495C625.52 399.756 627.067 398.98 628.099 398.724V398.209H625.781C628.354 396.151 630.156 394.349 631.958 393.063C633.5 393.318 635.046 393.573 636.078 393.834C636.333 388.943 632.213 388.683 629.125 386.625C630.411 385.855 631.187 385.084 632.213 384.823C635.046 384.052 638.651 386.11 640.453 381.735C640.708 381.48 641.479 381.48 642.77 380.964C641.994 380.193 641.224 379.677 640.708 379.162C641.224 378.901 641.994 378.646 641.994 378.646C643.796 379.933 645.083 380.964 646.63 381.99C646.885 381.735 647.145 381.48 647.401 380.964C646.63 379.933 646.114 378.901 645.343 377.875C648.687 375.558 648.947 374.271 646.375 367.834C648.171 367.578 649.974 367.063 651.52 366.808C651.776 365.006 652.807 363.203 652.552 361.657C651.776 357.026 656.411 354.964 657.442 351.105C657.442 350.844 658.468 350.589 658.729 350.844C661.046 351.62 661.817 349.818 662.588 348.532C662.849 348.016 663.104 347.5 663.359 347.24C665.677 345.953 667.994 344.927 670.567 343.641C667.994 339.776 664.645 341.579 661.817 341.063V340.037C663.619 339.776 665.421 339.521 667.479 339.261C666.192 339.006 665.161 338.75 664.135 338.49C665.421 337.204 666.447 335.917 667.739 334.886C667.994 334.631 668.765 334.37 669.026 334.37C669.796 334.631 670.567 335.401 671.083 335.917C671.338 335.146 671.599 334.115 672.114 333.344C673.14 332.058 674.432 331.026 675.458 329.995C676.744 331.542 678.031 333.084 679.322 334.886C679.578 334.886 679.833 334.631 679.833 334.631C679.578 332.058 679.578 329.48 679.322 326.907C680.349 327.167 681.125 327.167 681.895 327.422C682.151 327.167 682.151 326.907 682.411 326.907C681.635 326.651 681.125 326.391 680.349 326.136C681.635 324.589 682.411 323.563 682.666 323.302V318.412C682.151 318.157 681.635 317.641 680.864 317.386C680.349 317.125 679.833 316.87 679.322 316.87C679.833 316.355 680.864 315.584 681.125 315.584C682.921 316.61 682.411 313.782 683.437 314.037C683.437 313.266 683.437 311.719 683.182 311.719C679.833 310.433 680.349 307.599 679.578 305.797ZM-123.276 200.261H-115.813C-117.615 202.579 -121.99 202.579 -123.276 200.261ZM-71.7973 305.026V304C-68.4484 303.74 -64.8442 303.485 -61.5005 303.485C-65.1046 303.485 -68.1932 306.573 -71.7973 305.026ZM-133.829 429.87C-132.287 428.323 -131 427.297 -130.485 426.526C-129.198 427.552 -128.422 428.323 -127.651 429.099C-129.454 429.099 -131.256 429.355 -133.829 429.87ZM-115.813 428.584H-122.506C-122.761 428.584 -123.021 427.552 -123.532 426.782C-120.443 427.037 -118.131 427.297 -115.813 427.552V428.584ZM-114.011 428.323C-114.266 428.068 -114.266 427.813 -114.526 427.813C-113.495 427.037 -112.209 426.526 -111.178 425.75C-110.407 424.98 -110.146 423.693 -109.375 422.407C-107.318 426.526 -102.943 425.235 -99.0786 426.266C-104.23 426.782 -109.12 427.552 -114.011 428.323ZM-147.73 491.646C-147.474 491.646 -147.474 491.646 -147.73 491.646V491.646ZM-100.881 528.459C-101.141 526.657 -101.396 525.37 -101.651 523.568C-99.8546 524.084 -98.8234 524.339 -97.7921 524.855C-98.8234 525.886 -99.5942 526.912 -100.881 528.459ZM-41.938 212.36C-43.7348 212.62 -45.5369 213.391 -47.0838 213.391C-48.8859 213.646 -50.688 213.391 -52.7452 213.391C-53.0057 213.131 -53.2609 212.36 -53.5213 211.589C-51.7192 211.073 -49.9171 210.302 -47.8546 209.787C-47.8546 210.558 -48.115 211.073 -48.115 211.844C-45.7973 210.302 -43.7348 210.558 -41.938 212.36C-39.1046 210.302 -38.589 210.558 -37.8182 214.933C-39.3598 213.907 -40.6463 213.131 -41.938 212.36ZM-32.1515 211.844C-31.6411 211.334 -31.1255 210.818 -30.865 210.302C-29.063 212.62 -29.063 212.62 -32.9275 214.422L-36.7869 211.334C-34.214 209.271 -32.6671 209.271 -32.1515 211.844ZM-30.0942 555.74C-29.839 555.485 -29.5786 555.485 -29.3234 555.23C-29.063 555.74 -28.5525 556.256 -28.0369 557.032C-28.5525 557.032 -29.063 557.032 -29.5786 557.287C-29.839 556.516 -29.839 556 -30.0942 555.74ZM-14.3911 553.943C-14.1359 554.714 -13.8807 555.23 -13.365 555.74H-14.1359C-14.1359 555.23 -14.1359 554.714 -14.3911 553.943ZM6.7131 611.344C5.94226 610.058 5.42664 609.026 4.91101 607.995L6.19748 606.709C7.99956 607.995 8.25998 610.058 6.7131 611.344ZM72.0985 616.49C71.0673 615.974 70.036 615.719 69.0048 615.203C70.036 614.172 71.0673 613.146 71.8381 612.631L74.9266 614.948C74.1558 615.459 73.1246 615.974 72.0985 616.49ZM527.447 572.73C527.192 572.99 527.447 573.506 527.447 574.016L523.588 574.792C523.072 572.474 524.104 571.188 526.421 570.927C527.192 570.927 528.224 570.417 529.51 570.417C528.739 571.188 527.963 571.703 527.447 572.73ZM532.599 572.214C531.567 571.959 530.796 571.188 530.026 570.672C531.052 569.386 531.828 568.615 532.338 567.839C533.369 569.125 534.401 570.157 535.432 571.703C534.656 571.959 533.63 572.214 532.599 572.214ZM559.625 398.209C559.625 397.693 559.625 397.438 559.369 396.922L564.776 396.151C564.776 396.667 565.031 397.177 565.031 397.693C562.974 397.693 561.171 397.953 559.625 398.209ZM573.01 398.724C571.468 398.724 569.666 398.724 568.119 398.209C567.349 397.953 567.088 396.922 566.317 396.407C566.578 396.151 566.578 395.891 566.833 395.636C569.151 396.151 571.208 396.407 573.27 396.922C573.01 397.693 573.01 398.464 573.01 398.724ZM584.593 398.464C582.791 398.209 580.989 396.922 579.187 398.724C578.932 398.98 577.385 398.209 576.614 397.953C576.614 397.693 576.875 397.177 576.875 396.922H585.364C585.625 396.922 585.88 397.693 586.14 398.209C585.364 398.209 584.854 398.464 584.593 398.464ZM609.046 526.141C608.791 526.396 608.791 526.657 608.791 526.396C608.531 526.396 608.531 526.141 609.046 526.141ZM-144.125 512.24C-144.386 512.24 -144.386 512.5 -144.641 512.5C-144.641 512.5 -144.386 512.24 -144.125 512.24ZM-46.0525 560.891C-45.0265 561.407 -43.9952 561.922 -43.2244 562.177C-46.8286 564.235 -49.1411 563.724 -51.4588 560.12C-50.688 560.12 -50.1723 559.86 -49.4015 559.86C-48.3702 560.12 -47.0838 560.375 -46.0525 560.891ZM403.895 582C403.125 581.74 402.609 581.74 401.578 581.485C400.546 581.224 399.26 580.453 397.718 579.938C398.744 579.683 399.52 579.167 400.546 578.907C403.38 578.136 404.666 579.422 403.895 582ZM354.213 587.917C355.76 588.177 357.562 588.177 359.364 588.433C358.588 591.006 356.531 590.235 354.989 589.98C354.474 589.98 353.958 588.948 353.442 588.433C353.698 588.177 353.958 587.917 354.213 587.917ZM-126.365 527.427C-126.11 528.198 -125.849 528.714 -125.594 529.745C-127.136 529.745 -128.422 529.745 -129.714 529.485V527.683C-128.683 527.683 -127.651 527.683 -126.365 527.427ZM-25.9744 559.344C-24.4327 559.605 -22.8859 559.605 -21.0838 559.86C-22.115 560.891 -26.2348 561.662 -27.0057 560.891C-27.0057 560.631 -27.2609 560.12 -27.0057 559.86C-26.7505 559.605 -26.2348 559.344 -25.9744 559.344Z" fill="black"/>
</svg>
