<svg viewBox="0 0 120 180" xmlns="http://www.w3.org/2000/svg" role="img" aria-label="Hourglass loader">
  <defs>
    <linearGradient id="hg-glass-bg" x1="60" y1="18" x2="60" y2="162" gradientUnits="userSpaceOnUse">
      <stop offset="0" stop-color="#fff7d5" />
      <stop offset="1" stop-color="#fff0b8" />
    </linearGradient>
    <linearGradient id="hg-border-outer" x1="60" y1="16" x2="60" y2="164" gradientUnits="userSpaceOnUse">
      <stop offset="0" stop-color="#fde7a8" />
      <stop offset="0.55" stop-color="#fbdc7c" />
      <stop offset="1" stop-color="#f6c96a" />
    </linearGradient>
    <linearGradient id="hg-border-inner" x1="60" y1="18" x2="60" y2="162" gradientUnits="userSpaceOnUse">
      <stop offset="0" stop-color="#fff4d4" stop-opacity="0.7" />
      <stop offset="0.5" stop-color="#fff6df" stop-opacity="0.35" />
      <stop offset="1" stop-color="#fff7e6" stop-opacity="0.2" />
    </linearGradient>
  </defs>
  <path d="M96 24A36 8 0 0 0 24 24L59 90 24 156A36 8 0 0 0 96 156L61 90 96 24Z" fill="none" stroke="url(#hg-border-outer)" stroke-width="8" stroke-linejoin="round" />
  <path d="M96 24A36 8 0 0 0 24 24L59 90 24 156A36 8 0 0 0 96 156L61 90 96 24Z" fill="url(#hg-glass-bg)" stroke="url(#hg-border-inner)" stroke-width="3" stroke-linejoin="round" />
  <ellipse cx="60" cy="23" rx="34" ry="7.5" fill="#f6b567" opacity="0.85" />
  <ellipse cx="60" cy="157" rx="34" ry="7.5" fill="#c36900" opacity="0.78" />
</svg>

